<svg width="173" height="45" viewBox="0 0 173 45" fill="none" xmlns="http://www.w3.org/2000/svg">
<path d="M17.1755 35.1317C12.7997 35.1317 8.99718 33.4266 5.7681 30.0165C2.53902 26.5761 0.924475 22.4417 0.924475 17.6132C0.924475 12.9657 2.43339 9.08778 5.45123 5.97941C8.49924 2.84087 12.181 1.27159 16.4965 1.27159C17.764 1.27159 19.0013 1.42248 20.2084 1.72427C21.4156 2.02605 22.3662 2.35801 23.0603 2.72015C23.7846 3.08229 24.4183 3.44443 24.9615 3.80657C25.5349 4.13853 25.8518 4.30452 25.9121 4.30452H26.0932C26.4252 4.30452 26.8175 4.01782 27.2702 3.44443C27.753 2.84087 28.0397 2.52399 28.1302 2.49381C28.2811 2.40328 28.4773 2.35801 28.7187 2.35801C29.1412 2.35801 29.3525 2.56926 29.3525 2.99176V4.25925C29.3525 5.13442 29.3676 6.02468 29.3977 6.93003C29.4279 7.83538 29.4732 8.62002 29.5335 9.28394C29.5939 9.94786 29.6392 10.5514 29.6693 11.0946C29.7297 11.6077 29.775 12.0151 29.8051 12.3169C29.8353 12.6186 29.8504 12.7846 29.8504 12.8148C29.8504 13.2977 29.4128 13.5391 28.5377 13.5391C28.1152 13.5391 27.8586 13.4033 27.7681 13.1317C27.6776 12.8299 27.5116 12.2716 27.2702 11.4568C27.0589 10.6118 26.6364 9.75171 26.0027 8.87653C24.8257 7.27708 23.347 5.97941 21.5665 4.98353C19.7859 3.98764 17.9149 3.4897 15.9533 3.4897C14.716 3.4897 13.5088 3.73113 12.3319 4.21398C11.1851 4.69683 10.0836 5.4362 9.02736 6.43209C8.0013 7.42797 7.17139 8.84636 6.53765 10.6872C5.9039 12.4979 5.58703 14.5953 5.58703 16.9794C5.58703 19.8765 5.97935 22.3964 6.76398 24.5391C7.54862 26.6818 8.57468 28.3114 9.84217 29.428C11.1398 30.5446 12.4375 31.3594 13.7352 31.8724C15.0328 32.3855 16.3456 32.642 17.6735 32.642C19.4238 32.642 21.0685 32.2798 22.6076 31.5556C24.1467 30.8313 25.0521 30.1975 25.3237 29.6543C25.4142 29.4732 25.4595 29.2016 25.4595 28.8395V23.6337C25.4595 23.0302 25.2633 22.6379 24.871 22.4568C24.4787 22.2757 23.6639 22.1399 22.4265 22.0494C21.8833 22.0192 21.4457 21.989 21.1138 21.9588C20.2386 21.8985 19.801 21.5363 19.801 20.8724C19.801 20.1783 20.1481 19.8313 20.8422 19.8313C20.9327 19.8313 21.1741 19.8464 21.5665 19.8765C21.989 19.9067 22.5473 19.9369 23.2414 19.9671C23.9656 19.9973 24.7503 20.0123 25.5953 20.0123H25.6858C26.561 20.0123 27.3758 19.9973 28.1302 19.9671C28.8847 19.9369 29.4732 19.9067 29.8957 19.8765C30.3182 19.8464 30.5747 19.8313 30.6652 19.8313C31.0575 19.8313 31.3442 19.9369 31.5253 20.1481C31.7366 20.3292 31.8422 20.5405 31.8422 20.7819C31.8422 21.2949 31.4499 21.6872 30.6652 21.9588C29.9108 22.2304 29.4883 22.5473 29.3977 22.9095C29.3676 23 29.3525 23.166 29.3525 23.4074V31.2387C29.3525 31.8422 29.1412 32.144 28.7187 32.144C28.5377 32.144 28.2811 31.9931 27.9492 31.6914C27.6474 31.3594 27.4361 31.1934 27.3154 31.1934C27.1344 31.1934 26.9231 31.3141 26.6817 31.5556C23.9656 33.9396 20.7969 35.1317 17.1755 35.1317ZM35.2624 28.3868C35.2624 26.8176 35.2624 25.3539 35.2624 23.9959C35.2624 22.6379 35.2624 21.5816 35.2624 20.8272C35.2926 20.0425 35.3077 19.5748 35.3077 19.4239C35.3077 19.0919 35.1869 18.8656 34.9455 18.7448C34.7343 18.594 33.8138 18.1866 32.1842 17.5226C31.7919 17.3717 31.5957 17.1756 31.5957 16.9341C31.5957 16.8436 31.6108 16.7531 31.641 16.6625C31.7014 16.572 31.7768 16.4966 31.8673 16.4362C31.988 16.3759 32.0937 16.3306 32.1842 16.3004C32.2747 16.24 32.3955 16.1797 32.5463 16.1193C32.6972 16.059 32.8029 16.0137 32.8632 15.9835C36.2432 14.3539 37.9483 13.5391 37.9784 13.5391H38.0237C38.4462 13.5391 38.6575 13.7956 38.6575 14.3086L38.6122 15.8025C38.5518 16.7983 38.4915 18.1413 38.4311 19.8313C38.4009 21.4911 38.3859 23.1509 38.3859 24.8107V26.3498C38.3859 29.2167 38.4311 30.9067 38.5217 31.4198C38.6122 31.9328 38.914 32.2195 39.427 32.2798C40.3324 32.4005 40.9057 32.5062 41.1472 32.5967C41.3886 32.6872 41.5093 32.9136 41.5093 33.2757C41.5093 33.9396 41.3282 34.2716 40.9661 34.2716C40.9359 34.2716 40.8454 34.2565 40.6945 34.2263C40.5436 34.2263 40.3324 34.2112 40.0608 34.1811C39.7891 34.1509 39.4874 34.1207 39.1554 34.0905C38.8234 34.0604 38.4311 34.0302 37.9784 34C37.5559 34 37.1335 34 36.711 34C36.2885 34 35.8509 34 35.3982 34C34.9455 34.0302 34.5532 34.0604 34.2212 34.0905C33.9195 34.1207 33.6328 34.1509 33.3612 34.1811C33.0896 34.2112 32.8783 34.2263 32.7274 34.2263C32.5765 34.2565 32.486 34.2716 32.4558 34.2716C31.973 34.2716 31.7315 34.0151 31.7315 33.5021C31.7315 32.989 31.8221 32.6872 32.0031 32.5967C32.2144 32.5062 32.8934 32.3855 34.0402 32.2346C34.5834 32.144 34.9153 31.9781 35.0361 31.7366C35.1869 31.465 35.2624 31.0727 35.2624 30.5597V28.3868ZM35.7151 5.34567C35.7151 4.7421 35.9414 4.22907 36.3941 3.80657C36.8468 3.38408 37.3749 3.17283 37.9784 3.17283C38.582 3.17283 39.095 3.38408 39.5175 3.80657C39.9702 4.22907 40.1966 4.72701 40.1966 5.3004C40.1966 5.93415 39.9702 6.46227 39.5175 6.88476C39.095 7.30726 38.5669 7.51851 37.9332 7.51851C37.2994 7.51851 36.7713 7.32235 36.3488 6.93003C35.9263 6.50753 35.7151 5.97941 35.7151 5.34567ZM42.3945 34.2716C41.9117 34.2716 41.6703 33.8944 41.6703 33.1399C41.6703 32.8381 41.7608 32.642 41.9419 32.5514C42.1531 32.4609 42.5907 32.3704 43.2546 32.2798C43.5262 32.2497 43.7375 32.2195 43.8884 32.1893C43.9789 32.1893 44.0543 32.1742 44.1147 32.144C44.2052 32.1139 44.2656 32.0686 44.2958 32.0082C44.3561 31.9479 44.4014 31.9026 44.4316 31.8724C44.4618 31.8422 44.4768 31.7819 44.4768 31.6914C44.507 31.6008 44.5221 31.5405 44.5221 31.5103C44.5221 31.4801 44.5221 31.4047 44.5221 31.2839C44.5523 31.1632 44.5674 31.0878 44.5674 31.0576C44.6881 29.4883 44.7485 25.0672 44.7485 17.7942C44.7485 17.583 44.6579 17.4472 44.4768 17.3868C44.2958 17.3265 43.8582 17.2963 43.1641 17.2963C42.8019 17.2963 42.5153 17.2963 42.304 17.2963C41.6401 17.2963 41.3081 17.0247 41.3081 16.4815C41.3081 15.5459 41.6401 15.0782 42.304 15.0782C42.6963 15.048 43.149 15.0329 43.662 15.0329C44.1449 15.0329 44.4316 15.0178 44.5221 14.9876C44.6126 14.9575 44.6579 14.8368 44.6579 14.6255V14.5802C44.7485 10.8079 45.4124 7.83538 46.6497 5.66254C47.5249 4.15362 48.7773 2.94649 50.4069 2.04114C52.0667 1.10561 53.636 0.637847 55.1147 0.637847C56.2313 0.637847 57.0612 0.894363 57.6044 1.40739C58.1778 1.89025 58.4645 2.43346 58.4645 3.03702C58.4645 3.51988 58.2834 3.94238 57.9213 4.30452C57.5893 4.66666 57.1216 4.84773 56.518 4.84773C56.0955 4.84773 55.4618 4.66666 54.6168 4.30452C53.802 3.9122 53.1531 3.71604 52.6703 3.71604C51.101 3.71604 49.9089 4.66666 49.0941 6.56789C48.3095 8.46913 47.9172 10.8834 47.9172 13.8107V14.2181C47.9172 14.5199 47.9323 14.716 47.9624 14.8066C48.0228 14.8971 48.1586 14.9424 48.3699 14.9424H52.8966C53.5907 14.9424 53.9378 15.2593 53.9378 15.893V15.9383C53.9378 16.8738 53.5303 17.3416 52.7155 17.3416H48.3699C48.0982 17.3416 47.9624 17.4774 47.9624 17.749V31.0123V31.1934C47.9624 31.8875 48.2642 32.2497 48.8678 32.2798C49.1092 32.31 49.3808 32.3402 49.6826 32.3704C49.9844 32.3704 50.1956 32.3704 50.3164 32.3704C50.4672 32.3704 50.6181 32.3855 50.769 32.4156C50.9501 32.4156 51.0708 32.4458 51.1312 32.5062C51.2217 32.5364 51.2972 32.5816 51.3575 32.642C51.448 32.7023 51.4933 32.7929 51.4933 32.9136C51.5235 33.0041 51.5386 33.1248 51.5386 33.2757C51.5386 33.9396 51.2821 34.2716 50.769 34.2716C50.7389 34.2716 50.6483 34.2565 50.4974 34.2263C50.3465 34.2263 50.1353 34.2112 49.8637 34.1811C49.6223 34.1509 49.3356 34.1207 49.0036 34.0905C48.6716 34.0604 48.2944 34.0302 47.8719 34C47.4494 34 47.0269 34 46.6044 34C46.1819 34 45.7443 34 45.2917 34C44.8692 34.0302 44.4919 34.0604 44.16 34.0905C43.8582 34.1207 43.5715 34.1509 43.2999 34.1811C43.0283 34.2112 42.817 34.2263 42.6661 34.2263C42.5153 34.2565 42.4247 34.2716 42.3945 34.2716ZM54.9588 17.07C54.325 17.07 54.0082 16.8738 54.0082 16.4815C54.0082 16.3004 54.2194 16.0288 54.6419 15.6667C55.0946 15.2743 55.7283 14.6406 56.5432 13.7654C57.358 12.8601 58.1275 11.8038 58.8518 10.5967C59.1838 10.0233 59.4855 9.73662 59.7571 9.73662C60.1796 9.73662 60.3909 9.99313 60.3909 10.5062C60.3909 10.7174 60.3758 11.2606 60.3456 12.1358C60.3456 13.011 60.3456 13.5542 60.3456 13.7654C60.3456 14.369 60.6474 14.6708 61.251 14.6708H65.4156C65.4759 14.6708 65.5514 14.6859 65.6419 14.716C65.7325 14.716 65.7928 14.716 65.823 14.716C66.6076 14.716 66.9999 15.0027 66.9999 15.5761C66.9999 16.1495 66.8641 16.6022 66.5925 16.9341C66.4416 17.085 66.17 17.1605 65.7777 17.1605H60.3456C60.0438 17.1605 59.8929 17.3114 59.8929 17.6132C59.8929 20.118 59.8779 22.2003 59.8477 23.8601C59.8477 25.5199 59.8326 26.6365 59.8024 27.2099C59.8024 27.7833 59.8024 28.1907 59.8024 28.4321C59.8024 30.7257 60.6021 31.8724 62.2016 31.8724C62.8353 31.8724 63.4993 31.6461 64.1934 31.1934C64.8875 30.7106 65.491 30.2428 66.0041 29.7901C66.5473 29.3073 66.9547 29.0658 67.2263 29.0658C67.4677 29.0658 67.6639 29.1564 67.8148 29.3374C67.9958 29.5185 68.0864 29.7147 68.0864 29.9259C68.0864 30.107 67.9807 30.3635 67.7695 30.6955C65.325 33.4719 63.1673 34.8601 61.2962 34.8601C60.1796 34.8601 59.1536 34.4225 58.218 33.5473C57.3127 32.642 56.7846 31.2085 56.6337 29.2469C56.6035 28.9149 56.5884 28.417 56.5884 27.7531C56.5884 26.9986 56.6186 25.1728 56.679 22.2757C56.7393 19.3484 56.7695 17.749 56.7695 17.4774C56.7695 17.2058 56.6639 17.07 56.4526 17.07H54.9588ZM73.77 15.7119C73.77 15.893 73.8454 15.9835 73.9963 15.9835C74.0566 15.9835 74.3433 15.8326 74.8564 15.5309C75.3694 15.1989 76.1088 14.882 77.0745 14.5802C78.0704 14.2483 79.1417 14.0823 80.2885 14.0823C83.0045 14.0823 85.1774 15.0329 86.807 16.9341C88.4668 18.8052 89.2967 21.2647 89.2967 24.3128C89.2967 25.4897 89.1609 26.6365 88.8893 27.7531C88.6177 28.8395 87.9839 30.0014 86.9881 31.2387C86.0224 32.4458 84.7398 33.3512 83.1403 33.9547C81.5107 34.5583 79.7905 34.8601 77.9798 34.8601C77.165 34.8601 76.3049 34.7092 75.3996 34.4074C74.4942 34.1358 73.8454 34 73.4531 34C72.9099 34 72.427 34.166 72.0045 34.4979C71.582 34.8299 71.2953 34.9959 71.1444 34.9959C70.6616 34.9959 70.4202 34.5281 70.4202 33.5926C70.4202 31.7819 70.4352 27.2702 70.4654 20.0576C70.5258 12.8148 70.556 8.28806 70.556 6.47736C70.556 6.05486 70.3598 5.70781 69.9675 5.4362C69.7562 5.31549 69.545 5.19478 69.3337 5.07406C69.1225 4.92317 68.9414 4.81755 68.7905 4.75719C68.6698 4.66666 68.534 4.57612 68.3831 4.48559C68.2322 4.39505 68.1115 4.3196 68.021 4.25925C67.9606 4.19889 67.8852 4.13853 67.7946 4.07818C67.7041 4.01782 67.6287 3.97255 67.5683 3.94238C67.5381 3.9122 67.5079 3.88202 67.4778 3.85184C67.4476 3.79148 67.4174 3.74622 67.3872 3.71604C67.3872 3.65568 67.3872 3.61041 67.3872 3.58024C67.3872 3.33881 67.5834 3.14265 67.9757 2.99176C71.3859 1.63373 73.1513 0.95472 73.272 0.95472C73.6945 1.01508 73.9058 1.31686 73.9058 1.86007C73.9058 2.88613 73.8756 5.36076 73.8152 9.28394C73.785 13.2071 73.77 15.3498 73.77 15.7119ZM86.3996 25.0823C86.3996 22.5775 85.63 20.5254 84.0909 18.9259C82.5518 17.3265 80.7411 16.5267 78.6588 16.5267C77.5724 16.5267 76.4558 16.7833 75.309 17.2963C74.1924 17.8093 73.6341 18.3073 73.6341 18.7901V30.6502C73.6341 30.6804 73.6191 30.7407 73.5889 30.8313C73.5889 30.8916 73.5889 30.9369 73.5889 30.9671C73.5889 31.5405 73.8152 31.9177 74.2679 32.0988C75.7165 32.6722 77.1348 32.9588 78.523 32.9588C80.8769 32.9588 82.7782 32.2346 84.2267 30.786C85.6753 29.3073 86.3996 27.406 86.3996 25.0823ZM95.1161 16.5267C95.1463 16.5267 95.4782 16.3155 96.112 15.893C96.7457 15.4403 97.4549 14.9575 98.2396 14.4444C99.0242 13.9314 99.5976 13.6145 99.9597 13.4938C100.322 13.3731 100.775 13.3127 101.318 13.3127C102.163 13.3127 102.978 13.5089 103.762 13.9012C104.547 14.2634 104.939 14.7462 104.939 15.3498V15.3951C104.939 15.5761 104.879 15.7572 104.758 15.9383C104.637 16.1193 104.532 16.2551 104.441 16.3457C104.351 16.4362 104.2 16.572 103.989 16.7531L103.672 17.0247C103.641 17.0247 103.475 17.1454 103.174 17.3868C102.902 17.5981 102.661 17.749 102.449 17.8395C102.238 17.93 102.012 17.9753 101.77 17.9753C101.408 17.9753 100.986 17.7791 100.503 17.3868C100.05 16.9945 99.5523 16.7983 99.0091 16.7983C98.3452 16.7983 97.636 17.0398 96.8815 17.5226C96.1271 18.0055 95.6442 18.3978 95.433 18.6996C95.3123 18.8807 95.2519 19.1673 95.2519 19.5597V30.6502V30.8313C95.2519 31.7064 95.6291 32.1742 96.3836 32.2346C96.6854 32.2647 97.0928 32.2949 97.6058 32.3251C98.5413 32.3855 99.1298 32.476 99.3712 32.5967C99.6428 32.6872 99.7786 32.9438 99.7786 33.3663C99.7786 33.9698 99.5674 34.2716 99.1449 34.2716C99.1147 34.2716 99.0091 34.2565 98.828 34.2263C98.6771 34.2263 98.4508 34.2112 98.149 34.1811C97.8472 34.1509 97.5153 34.1207 97.1531 34.0905C96.791 34.0604 96.3534 34.0302 95.8404 34C95.3575 34 94.8898 34 94.4371 34C93.9542 34 93.4714 34 92.9885 34C92.5057 34.0302 92.0681 34.0604 91.6758 34.0905C91.3136 34.1207 90.9817 34.1509 90.6799 34.1811C90.4083 34.2112 90.1819 34.2263 90.0009 34.2263C89.85 34.2565 89.7594 34.2716 89.7293 34.2716C89.2162 34.2716 88.9597 34.0151 88.9597 33.5021C88.9597 33.2305 89.0201 33.0343 89.1408 32.9136C89.2615 32.7627 89.3822 32.6722 89.5029 32.642C89.6236 32.5816 89.85 32.5364 90.1819 32.5062C90.5441 32.4458 90.8308 32.3855 91.042 32.3251C91.6154 32.2044 91.9021 31.8422 91.9021 31.2387V18.9259C91.9021 18.7448 91.887 18.609 91.8568 18.5185C91.8267 18.3978 91.7361 18.2771 91.5852 18.1564C91.4645 18.0055 91.3287 17.8848 91.1778 17.7942C91.0571 17.7037 90.8006 17.5226 90.4083 17.251C90.016 16.9794 89.6538 16.7229 89.3219 16.4815C89.2313 16.3909 89.171 16.2853 89.1408 16.1646C89.1408 16.0439 89.7594 15.6968 90.9968 15.1234C92.1134 14.5802 93.1243 14.0823 94.0297 13.6296C94.0599 13.6296 94.1051 13.6145 94.1655 13.5844C94.2862 13.524 94.3767 13.4938 94.4371 13.4938C94.7992 13.4938 94.9803 13.8107 94.9803 14.4444V16.3004C94.9803 16.4513 95.0256 16.5267 95.1161 16.5267ZM108.042 28.3868C108.042 26.8176 108.042 25.3539 108.042 23.9959C108.042 22.6379 108.042 21.5816 108.042 20.8272C108.073 20.0425 108.088 19.5748 108.088 19.4239C108.088 19.0919 107.967 18.8656 107.726 18.7448C107.514 18.594 106.594 18.1866 104.964 17.5226C104.572 17.3717 104.376 17.1756 104.376 16.9341C104.376 16.8436 104.391 16.7531 104.421 16.6625C104.481 16.572 104.557 16.4966 104.647 16.4362C104.768 16.3759 104.874 16.3306 104.964 16.3004C105.055 16.24 105.176 16.1797 105.326 16.1193C105.477 16.059 105.583 16.0137 105.643 15.9835C109.023 14.3539 110.728 13.5391 110.759 13.5391H110.804C111.226 13.5391 111.438 13.7956 111.438 14.3086L111.392 15.8025C111.332 16.7983 111.272 18.1413 111.211 19.8313C111.181 21.4911 111.166 23.1509 111.166 24.8107V26.3498C111.166 29.2167 111.211 30.9067 111.302 31.4198C111.392 31.9328 111.694 32.2195 112.207 32.2798C113.112 32.4005 113.686 32.5062 113.927 32.5967C114.169 32.6872 114.289 32.9136 114.289 33.2757C114.289 33.9396 114.108 34.2716 113.746 34.2716C113.716 34.2716 113.625 34.2565 113.475 34.2263C113.324 34.2263 113.112 34.2112 112.841 34.1811C112.569 34.1509 112.267 34.1207 111.935 34.0905C111.604 34.0604 111.211 34.0302 110.759 34C110.336 34 109.914 34 109.491 34C109.069 34 108.631 34 108.178 34C107.726 34.0302 107.333 34.0604 107.001 34.0905C106.7 34.1207 106.413 34.1509 106.141 34.1811C105.87 34.2112 105.658 34.2263 105.508 34.2263C105.357 34.2565 105.266 34.2716 105.236 34.2716C104.753 34.2716 104.512 34.0151 104.512 33.5021C104.512 32.989 104.602 32.6872 104.783 32.5967C104.994 32.5062 105.673 32.3855 106.82 32.2346C107.363 32.144 107.695 31.9781 107.816 31.7366C107.967 31.465 108.042 31.0727 108.042 30.5597V28.3868ZM108.495 5.34567C108.495 4.7421 108.722 4.22907 109.174 3.80657C109.627 3.38408 110.155 3.17283 110.759 3.17283C111.362 3.17283 111.875 3.38408 112.298 3.80657C112.75 4.22907 112.977 4.72701 112.977 5.3004C112.977 5.93415 112.75 6.46227 112.298 6.88476C111.875 7.30726 111.347 7.51851 110.713 7.51851C110.08 7.51851 109.551 7.32235 109.129 6.93003C108.706 6.50753 108.495 5.97941 108.495 5.34567ZM124.681 16.2551C122.387 16.2551 120.622 16.9492 119.385 18.3374C118.147 19.7256 117.529 21.6118 117.529 23.9959C117.529 26.6214 118.404 28.7037 120.154 30.2428C121.904 31.7819 123.715 32.5514 125.586 32.5514C126.522 32.5514 127.427 32.3704 128.302 32.0082C129.208 31.6159 129.751 31.1331 129.932 30.5597C130.053 30.0768 130.113 29.7298 130.113 29.5185V19.107C130.113 18.7147 129.947 18.3525 129.615 18.0206C128.347 16.8436 126.703 16.2551 124.681 16.2551ZM124.771 14.3992C125.677 14.3992 126.522 14.4595 127.306 14.5802C128.091 14.6708 128.695 14.7764 129.117 14.8971L129.751 15.0782C129.992 15.0782 130.113 14.9424 130.113 14.6708V6.88476C130.113 6.79423 130.098 6.71878 130.068 6.65843C130.068 6.56789 130.053 6.49244 130.022 6.43209C130.022 6.37173 129.992 6.31137 129.932 6.25102C129.902 6.19066 129.871 6.14539 129.841 6.11522C129.811 6.08504 129.736 6.03977 129.615 5.97941C129.524 5.91906 129.434 5.87379 129.343 5.84361C129.283 5.78325 129.162 5.7229 128.981 5.66254C128.83 5.60218 128.679 5.54183 128.529 5.48147C128.408 5.42111 128.227 5.34567 127.985 5.25513C127.744 5.1646 127.518 5.07406 127.306 4.98353C126.733 4.83264 126.446 4.59121 126.446 4.25925C126.446 4.07818 126.582 3.89711 126.854 3.71604C130.716 1.84498 132.708 0.909452 132.829 0.909452C133.191 0.909452 133.372 1.1207 133.372 1.5432C133.372 1.84498 133.357 2.64471 133.327 3.94238C133.297 5.20987 133.267 6.9753 133.236 9.23867C133.236 11.4719 133.236 13.9163 133.236 16.572C133.236 24.8409 133.282 29.3827 133.372 30.1975C133.372 30.2881 133.372 30.3635 133.372 30.4239C133.402 30.454 133.433 30.4993 133.463 30.5597C133.493 30.5898 133.523 30.62 133.553 30.6502C133.614 30.6804 133.674 30.7106 133.734 30.7407C133.825 30.7407 133.9 30.7558 133.961 30.786C134.021 30.786 134.112 30.786 134.232 30.786C134.383 30.786 134.504 30.786 134.594 30.786C134.715 30.786 134.866 30.8011 135.047 30.8313C135.228 30.8313 135.394 30.8313 135.545 30.8313C136.149 30.8313 136.45 31.0576 136.45 31.5103C136.45 31.7215 136.36 31.8875 136.179 32.0082C136.028 32.1289 135.681 32.31 135.138 32.5514C134.625 32.7627 134.142 33.0041 133.689 33.2757C133.085 33.6077 132.542 33.9396 132.059 34.2716C131.577 34.6337 131.23 34.8903 131.018 35.0412C130.807 35.2222 130.641 35.3128 130.52 35.3128C130.279 35.3128 130.158 35.1468 130.158 34.8148V33.321C130.158 33.2305 130.113 33.1852 130.022 33.1852L129.751 33.3663C129.6 33.487 129.374 33.6379 129.072 33.8189C128.77 34 128.408 34.1811 127.985 34.3621C127.593 34.5432 127.08 34.6941 126.446 34.8148C125.843 34.9355 125.209 34.9959 124.545 34.9959C121.557 34.9959 119.113 33.9849 117.212 31.963C115.341 29.9108 114.405 27.3909 114.405 24.4033C114.405 21.7174 115.265 19.3786 116.985 17.3868C118.736 15.3951 121.316 14.3992 124.726 14.3992H124.771ZM143.854 15.4856C142.677 15.4856 141.711 15.9684 140.957 16.9341C140.203 17.8697 139.825 19.0919 139.825 20.6008C139.825 22.3813 140.278 23.9204 141.183 25.2181C142.089 26.5158 143.235 27.1646 144.624 27.1646C145.861 27.1646 146.857 26.6818 147.611 25.716C148.366 24.7202 148.743 23.4979 148.743 22.0494C148.743 20.3292 148.275 18.8052 147.34 17.4774C146.434 16.1495 145.272 15.4856 143.854 15.4856ZM139.056 38.0741C139.056 39.4321 139.765 40.5336 141.183 41.3786C142.632 42.2236 144.443 42.6461 146.615 42.6461C148.758 42.6461 150.267 42.299 151.142 41.6049C152.048 40.941 152.5 40.1715 152.5 39.2963C152.5 38.0288 151.882 37.1084 150.644 36.535C150.01 36.203 149.271 35.9767 148.426 35.856C147.581 35.7654 146.389 35.69 144.85 35.6296C143.341 35.5995 142.013 35.524 140.866 35.4033H140.731C140.519 35.4033 140.248 35.5693 139.916 35.9012C139.342 36.4746 139.056 37.1989 139.056 38.0741ZM136.249 21.144C136.249 19.1824 136.958 17.4924 138.377 16.0741C139.825 14.6557 141.606 13.9465 143.718 13.9465C145.016 13.9465 146.268 14.2181 147.476 14.7613C148.713 15.3045 149.407 15.5761 149.558 15.5761C150.524 15.5761 151.338 15.0933 152.002 14.1276C152.455 13.4033 152.893 13.0411 153.315 13.0411C153.738 13.0411 154.13 13.2524 154.492 13.6749C154.884 14.0672 155.08 14.4897 155.08 14.9424C155.08 15.4856 154.839 15.9534 154.356 16.3457C153.904 16.738 153.36 17.07 152.727 17.3416C152.123 17.583 151.806 17.7188 151.776 17.749C151.625 17.8999 151.55 18.0206 151.55 18.1111C151.55 18.1715 151.595 18.3224 151.685 18.5638C151.776 18.8052 151.866 19.1523 151.957 19.6049C152.048 20.0274 152.093 20.4952 152.093 21.0082C152.093 23.1509 151.338 24.9918 149.829 26.5309C148.351 28.0398 146.54 28.7942 144.397 28.7942C143.794 28.7942 143.22 28.7339 142.677 28.6132C142.134 28.4623 141.802 28.3868 141.681 28.3868C141.259 28.3868 140.806 28.6584 140.323 29.2016C139.84 29.7147 139.599 30.2277 139.599 30.7407C139.599 31.5556 140.248 32.0988 141.545 32.3704C142.873 32.642 144.548 32.808 146.57 32.8683C148.622 32.9287 150.086 33.0946 150.961 33.3663C152.349 33.7586 153.39 34.4225 154.085 35.358C154.809 36.3237 155.171 37.3649 155.171 38.4815C155.171 39.1756 155.02 39.8697 154.718 40.5638C154.417 41.2579 153.919 41.9369 153.224 42.6008C152.561 43.2647 151.565 43.808 150.237 44.2305C148.909 44.653 147.34 44.8642 145.529 44.8642C142.179 44.8642 139.825 44.2455 138.467 43.0082C137.139 41.8011 136.476 40.4733 136.476 39.0247C136.476 38.7229 136.506 38.4211 136.566 38.1193C136.626 37.8477 136.702 37.5912 136.792 37.3498C136.883 37.1385 136.973 36.9273 137.064 36.7161C137.185 36.535 137.305 36.3539 137.426 36.1728C137.577 36.0219 137.713 35.8861 137.834 35.7654C137.984 35.6447 138.12 35.5391 138.241 35.4486C138.362 35.358 138.467 35.2675 138.558 35.177C138.648 35.1166 138.724 35.0713 138.784 35.0412L138.875 34.9959C138.935 34.9355 138.965 34.8601 138.965 34.7695C138.965 34.7394 138.814 34.6337 138.513 34.4527C138.241 34.2716 137.954 33.9698 137.652 33.5473C137.381 33.1248 137.245 32.6118 137.245 32.0082C137.245 30.5295 138.105 29.096 139.825 27.7078L139.871 27.6625C139.901 27.6324 139.916 27.5871 139.916 27.5267C139.916 27.406 139.78 27.2702 139.508 27.1193C139.237 26.9684 138.86 26.6818 138.377 26.2593C137.924 25.8066 137.502 25.2332 137.109 24.5391C136.536 23.513 136.249 22.3813 136.249 21.144ZM155.332 24.4486C155.332 21.31 156.162 18.7901 157.822 16.8889C159.481 14.9876 161.503 14.037 163.887 14.037C165.427 14.037 166.905 14.4595 168.324 15.3045C169.742 16.1495 170.919 17.2058 171.855 18.4732C172.096 18.775 172.217 19.107 172.217 19.4691V19.5597C172.217 19.8313 172.141 20.0727 171.99 20.2839C171.839 20.4952 171.598 20.6914 171.266 20.8724C170.934 21.0233 170.647 21.144 170.406 21.2346C170.165 21.3251 169.802 21.4458 169.32 21.5967C168.867 21.7476 168.58 21.8381 168.46 21.8683C162.152 24.0411 158.923 25.1728 158.772 25.2634C158.652 25.3237 158.591 25.4143 158.591 25.535C158.591 25.716 158.636 26.0178 158.727 26.4403C158.818 26.8628 159.014 27.4211 159.315 28.1152C159.647 28.8093 160.04 29.4582 160.492 30.0617C160.975 30.6351 161.654 31.1481 162.529 31.6008C163.405 32.0233 164.385 32.2346 165.472 32.2346C167.584 32.2346 169.425 31.4801 170.994 29.9712C171.417 29.5487 171.764 29.3374 172.036 29.3374C172.549 29.3374 172.805 29.5638 172.805 30.0165C172.805 30.1975 172.684 30.439 172.443 30.7407C171.477 32.0082 170.27 33.0192 168.822 33.7737C167.373 34.4979 165.849 34.8601 164.25 34.8601C163.224 34.8601 162.213 34.679 161.217 34.3169C160.251 33.9547 159.3 33.3964 158.365 32.642C157.46 31.8875 156.72 30.8011 156.147 29.3827C155.604 27.9643 155.332 26.3196 155.332 24.4486ZM167.735 19.6502C167.735 19.2579 167.207 18.6543 166.151 17.8395C165.095 16.9945 163.993 16.572 162.846 16.572C161.488 16.572 160.402 17.1605 159.587 18.3374C158.802 19.5144 158.41 21.1289 158.41 23.1811C158.41 23.4225 158.486 23.5432 158.636 23.5432C158.697 23.5432 160.13 23 162.937 21.9136C165.774 20.797 167.237 20.2236 167.328 20.1934C167.599 20.0425 167.735 19.8614 167.735 19.6502Z" fill="#878787"/>
</svg>
