<svg width="111" height="13" viewBox="0 0 111 13" fill="none" xmlns="http://www.w3.org/2000/svg">
<path d="M7.448 5.488V0.639999H9.32V12H7.448V7.152H2.04V12H0.168V0.639999H2.04V5.488H7.448ZM17.396 8.16V3.696H19.252V12H17.684L17.46 10.528C16.948 11.568 16.004 12.176 14.66 12.176C12.916 12.176 11.332 11.104 11.332 8.56V3.696H13.156V8.288C13.156 10.064 14.18 10.608 15.22 10.608C16.532 10.608 17.396 9.744 17.396 8.16ZM27.9791 5.216V-9.53674e-07H29.8031V12H27.9791V10.304C27.5151 11.44 26.3631 12.16 24.8431 12.16C22.3151 12.16 20.7631 10.224 20.7631 7.824C20.7631 5.36 22.3791 3.52 24.9391 3.52C26.1871 3.52 27.3391 4.128 27.9791 5.216ZM25.3071 10.512C26.8591 10.512 27.9631 9.36 27.9631 7.84C27.9631 6.336 26.8591 5.184 25.3071 5.184C23.7391 5.184 22.6191 6.288 22.6191 7.84C22.6191 9.408 23.7391 10.512 25.3071 10.512ZM34.862 12.16C32.942 12.16 31.262 11.328 31.166 9.424L32.958 9.36C33.054 10.224 33.854 10.72 34.926 10.72C35.838 10.72 36.462 10.352 36.462 9.728C36.462 8.064 31.534 9.008 31.534 5.984C31.534 4.464 32.942 3.536 34.702 3.536C36.606 3.536 37.95 4.64 38.014 6.08L36.27 6.128C36.174 5.424 35.598 4.928 34.686 4.928C33.918 4.928 33.31 5.28 33.31 5.856C33.31 7.488 38.302 6.496 38.302 9.648C38.302 11.264 36.878 12.16 34.862 12.16ZM43.758 12.16C41.198 12.16 39.31 10.336 39.31 7.84C39.31 5.36 41.198 3.52 43.758 3.52C46.334 3.52 48.206 5.36 48.206 7.84C48.206 10.336 46.334 12.16 43.758 12.16ZM43.758 10.512C45.294 10.512 46.43 9.36 46.43 7.84C46.43 6.304 45.294 5.168 43.758 5.168C42.238 5.168 41.086 6.304 41.086 7.84C41.086 9.36 42.238 10.512 43.758 10.512ZM54.3016 3.52C56.0616 3.52 57.6456 4.592 57.6456 7.136V12H55.7896V7.408C55.7896 5.632 54.7816 5.104 53.7416 5.104C52.4296 5.104 51.5656 5.952 51.5656 7.536V12H49.7096V3.696H51.2776L51.5336 5.088C52.0456 4.096 52.9736 3.52 54.3016 3.52ZM65.0088 12H63.1368V0.639999H70.0008V2.352H65.0088V5.552H69.3448V7.2H65.0088V12ZM77.3491 8.16V3.696H79.2051V12H77.6371L77.4131 10.528C76.9011 11.568 75.9571 12.176 74.6131 12.176C72.8691 12.176 71.2851 11.104 71.2851 8.56V3.696H73.1091V8.288C73.1091 10.064 74.1331 10.608 75.1731 10.608C76.4851 10.608 77.3491 9.744 77.3491 8.16ZM84.2682 12.16C82.3483 12.16 80.6683 11.328 80.5723 9.424L82.3643 9.36C82.4603 10.224 83.2603 10.72 84.3323 10.72C85.2443 10.72 85.8683 10.352 85.8683 9.728C85.8683 8.064 80.9403 9.008 80.9403 5.984C80.9403 4.464 82.3483 3.536 84.1083 3.536C86.0123 3.536 87.3563 4.64 87.4203 6.08L85.6763 6.128C85.5803 5.424 85.0043 4.928 84.0923 4.928C83.3243 4.928 82.7163 5.28 82.7163 5.856C82.7163 7.488 87.7083 6.496 87.7083 9.648C87.7083 11.264 86.2843 12.16 84.2682 12.16ZM90.0283 2.656C89.4203 2.656 88.9403 2.176 88.9403 1.584C88.9403 0.976 89.4203 0.495999 90.0283 0.495999C90.6203 0.495999 91.1003 0.976 91.1003 1.584C91.1003 2.176 90.6203 2.656 90.0283 2.656ZM89.1003 3.696H90.9403V12H89.1003V3.696ZM96.8986 12.16C94.3386 12.16 92.4506 10.336 92.4506 7.84C92.4506 5.36 94.3386 3.52 96.8986 3.52C99.4746 3.52 101.347 5.36 101.347 7.84C101.347 10.336 99.4746 12.16 96.8986 12.16ZM96.8986 10.512C98.4346 10.512 99.5706 9.36 99.5706 7.84C99.5706 6.304 98.4346 5.168 96.8986 5.168C95.3786 5.168 94.2266 6.304 94.2266 7.84C94.2266 9.36 95.3786 10.512 96.8986 10.512ZM107.442 3.52C109.202 3.52 110.786 4.592 110.786 7.136V12H108.93V7.408C108.93 5.632 107.922 5.104 106.882 5.104C105.57 5.104 104.706 5.952 104.706 7.536V12H102.85V3.696H104.418L104.674 5.088C105.186 4.096 106.114 3.52 107.442 3.52Z" fill="#FF0404"/>
</svg>
