<svg width="105" height="104" viewBox="0 0 105 104" fill="none" xmlns="http://www.w3.org/2000/svg">
<circle cx="53" cy="52" r="52" fill="#F0EEEF"/>
<path d="M76.3337 49.8533V52C76.3308 57.0317 74.7015 61.9276 71.6888 65.9576C68.6761 69.9876 64.4413 72.9358 59.6162 74.3624C54.791 75.7891 49.6339 75.6178 44.9141 73.874C40.1942 72.1303 36.1645 68.9076 33.4259 64.6865C30.6873 60.4654 29.3865 55.4722 29.7176 50.4514C30.0486 45.4307 31.9938 40.6514 35.263 36.8265C38.5321 33.0016 42.9502 30.3359 47.8581 29.227C52.766 28.1181 57.901 28.6255 62.497 30.6733" stroke="#316FDA" stroke-width="4" stroke-linecap="round" stroke-linejoin="round"/>
<path d="M76.3333 33.333L53 56.6897L46 49.6897" stroke="#316FDA" stroke-width="4" stroke-linecap="round" stroke-linejoin="round"/>
</svg>
